<?xml version="1.0" encoding="utf-8"?>
<!-- Generator: Adobe Illustrator 19.1.0, SVG Export Plug-In . SVG Version: 6.00 Build 0)  -->
<svg version="1.1" id="Layer_1" xmlns="http://www.w3.org/2000/svg" xmlns:xlink="http://www.w3.org/1999/xlink" x="0px" y="0px"
	 viewBox="-220 344.3 170.3 105.7" style="enable-background:new -220 344.3 170.3 105.7;" xml:space="preserve">
<style type="text/css">
	.st0{enable-background:new    ;}
	.st1{fill:#EB2063;}
</style>
<g class="st0">
	<path class="st1" d="M-158.5,397.7c1,0,1.4,1.2,1.4,3.7c0,1.3-0.6,2.9-1.7,4.8c-1.1,1.9-2.6,3.6-4.4,5.2c-1.8,1.6-3.8,2.9-6,3.9
		c-2.2,1-4.3,1.5-6.4,1.5c-2.9,0-4.9-2.4-5.8-7.2c-3.2,5.1-7.9,7.6-14.2,7.6c-3.8,0-6.9-1.2-9.2-3.5c-2.3-2.3-3.4-5.2-3.4-8.6
		c0-9.1,3-16.2,9-21.4c4.2-3.6,8.5-5.4,13-5.4c2,0,3.6,0.2,4.8,0.5l1.8,0.5c2.2-10.3,4.7-17.2,7.6-20.6c1-1.2,1.9-1.8,2.9-1.8
		c1.5,0,3,1.1,4.3,3.2c1.2,1.8,1.8,3.3,1.8,4.6s-0.2,2.5-0.6,3.8c-0.4,1.2-0.8,2.4-1.4,3.4c-0.6,1-1.2,2.1-1.9,3c-0.7,1-1.4,2-2.1,3
		c-1.5,5.8-2.7,12.2-3.4,19.4c-0.2,2-0.3,3.7-0.3,4.9c0,3.7,0.6,5.5,1.8,5.5c1.4,0,4.7-2.8,10.1-8.3
		C-159.6,398.3-158.9,397.7-158.5,397.7z M-196.3,402.5c0,4.1,1.5,6.2,4.6,6.2c1.8,0,3.6-0.7,5.5-2.1c1.8-1.4,3.3-3.7,4.3-7
		c0.1-4.8,0.7-10.1,1.7-15.8c-4.3,0.9-8,2.9-11.2,6.2C-194.7,393.4-196.3,397.5-196.3,402.5z"/>
	<path class="st1" d="M-151.5,416.9c-5.3,0-8-5-8-15c0-5.4,0.7-10.4,2-14.8c2.1-6.8,4.4-10.2,7-10.2c1.5,0,2.8,1,3.7,3.1
		c0.7,1.6,1.1,3.2,1,4.7c0,2.1-0.6,5.9-1.9,11.3c-1.2,4.7-1.8,7.6-1.8,8.7s0.3,1.9,0.8,2.3s1.2,0.6,2,0.6c0.8,0,1.7-0.5,2.9-1.5
		c1.2-1,2.3-2.1,3.5-3.3c1.2-1.2,2.3-2.3,3.2-3.3c1-1,1.7-1.5,2-1.5c0.7,0,1.1,0.9,1.1,2.7c0,3.7-1.9,7.4-5.6,10.9
		C-143.2,415.2-147.2,416.9-151.5,416.9z M-148.2,370.4c-1.4-2.1-2.2-4.4-2.2-6.9c0-2.5,0.4-4.5,1.2-6.1c0.8-1.6,1.5-2.8,2.2-3.6
		c0.7-0.8,1.5-1.2,2.4-1.2c1.5,0,2.9,1.1,4.1,3.3c1.2,2.2,1.8,4.1,1.8,5.6c0,2.8-1,4.9-2.9,6.5
		C-143.5,369.6-145.7,370.4-148.2,370.4z"/>
	<path class="st1" d="M-136.3,375.9c0-1,0.3-1.4,1-1.4c1.1,0,2.2,0.2,3.3,0.7c1.1,0.5,2.3,0.8,3.6,1.1c4.3-9.1,9.2-15.1,14.7-17.8
		c1.9-1,3.8-1.4,5.8-1.4c3.6,0.1,6,0.9,7.2,2.6c1.3,1.7,1.9,3.8,1.9,6.4c-0.1,5-2.2,8.9-6.4,11.7c-4.2,2.9-9.4,4.4-15.4,4.8
		c-1.5,4.1-2.7,8.5-3.6,13.1c2.1-0.8,4.7-1.2,8-1.2c0.4,3.4,1.2,5.8,2.2,7.2c1.1,1.4,2.3,2.2,3.6,2.2c1.3,0,2.4-0.3,3.3-1
		s1.7-1.4,2.3-2.2s1.2-1.5,1.7-2.2c0.5-0.6,0.9-1,1.3-1c0.9,0,1.4,0.8,1.4,2.4c0,3.2-0.8,5.9-2.4,8c-1.6,2.1-4.1,3.2-7.4,3.2
		c-5.2,0-8.9-1.4-11-4.1c1.2,11.7,1.8,18.7,1.8,21c0,4-1.3,6.9-3.8,8.6c-2.1,1.4-4.7,2.2-8,2.2c-3.2,0-5.5-0.7-6.7-2.2
		c-1.3-1.5-1.9-3.2-1.9-5.2c0-12.9,1.8-25.8,5.5-38.8c1.2-4.2,2.5-8.1,4-11.7C-134.3,378.9-136.3,377.3-136.3,375.9z M-126.5,430.9
		c0.5-1,0.8-2,0.8-3.2c0-3.7-0.5-9.3-1.5-17c-1.3,5.5-2.2,11-2.7,16.4c-0.1,1.2-0.2,1.9-0.2,2.2c0,2,0.6,3,1.8,3
		C-127.6,432.4-127,431.9-126.5,430.9z M-108.5,364.9c-1.1,0-2.5,1-4.4,3c-1.8,2-3.7,5.1-5.6,9.3c3.9-1.7,6.5-3,7.7-3.9
		c2.5-1.8,3.8-3.9,3.8-6.3C-107.1,365.5-107.6,364.9-108.5,364.9z"/>
	<path class="st1" d="M-81.1,399.1c1.4,5.7,3.9,8.6,7.3,8.6c1.7,0,3.1-0.5,4.5-1.5c1.3-1,2.5-2.1,3.6-3.3c1.1-1.2,2-2.3,2.8-3.3
		c0.8-1,1.5-1.5,2.2-1.5c0.7,0,1,0.9,1,2.7c0,3.8-1.8,7.4-5.3,11c-3.5,3.5-7.5,5.3-11.8,5.2c-4.3,0-8.2-3.9-11.6-11.5
		c-1-2.1-1.9-4.3-2.7-6.5l-0.6,11c0,1-0.1,2-0.2,3c-0.1,1-0.6,1.8-1.4,2.4c-2.1,1.7-4.2,2.5-6.3,2.5c-2.5,0-3.8-2.6-3.8-7.8
		c0-7.5,0.9-15.3,2.6-23.4c1.8-8.2,3.5-14.3,5.2-18.4c1.7-4.1,3-6.9,3.9-8.3c0.9-1.4,1.7-2.2,2.2-2.6c0.5-0.3,1.1-0.5,1.8-0.5
		s1.4,0.3,2.1,1c0.7,0.7,1.5,1.7,2.4,3c0.9,1.4,1.3,2.7,1.3,4c0,1.3-0.2,2.6-0.6,3.8c-0.5,1.3-1.1,2.5-1.8,3.7
		c-0.7,1.2-1.6,2.4-2.5,3.7c-0.9,1.3-1.8,2.6-2.7,4l-0.8,6.7c1.9-3.9,4.6-6.5,8.2-7.8c1.3-0.5,2.8-0.7,4.5-0.7c3.4,0,6,0.8,7.8,2.4
		c1.8,1.6,2.7,4,2.7,7.2c0,3.1-1.6,5.8-4.7,8C-74.7,398.1-77.9,399.1-81.1,399.1z M-78,389.7c0-1.9-1.1-2.9-3.3-2.9
		c-2.2,0-4.6,2.1-7.1,6.3c-0.7,1.2-1.4,2.5-1.9,3.8c5.5-0.3,9.3-1.8,11.4-4.5C-78.4,391.6-78,390.7-78,389.7z"/>
</g>
</svg>
