<?xml version="1.0" encoding="utf-8"?>
<!-- Generator: Adobe Illustrator 19.1.0, SVG Export Plug-In . SVG Version: 6.00 Build 0)  -->
<svg version="1.1" id="Layer_1" xmlns="http://www.w3.org/2000/svg" xmlns:xlink="http://www.w3.org/1999/xlink" x="0px" y="0px"
	 viewBox="0 0 170.3 105.7" style="enable-background:new 0 0 170.3 105.7;" xml:space="preserve">
<style type="text/css">
	.st0{fill:#EB2063;}
	.st1{opacity:0.1;fill:#FFFFFF;}
</style>
<g>
	<path class="st0" d="M77.2,65.4c1,0,1.4,1.2,1.4,3.7c0,1.3-0.6,2.9-1.7,4.8c-1.1,1.9-2.6,3.6-4.4,5.2c-1.8,1.6-3.8,2.9-6,3.9
		c-2.2,1-4.3,1.5-6.4,1.5c-2.9,0-4.9-2.4-5.8-7.2c-3.2,5.1-7.9,7.6-14.2,7.6c-3.8,0-6.9-1.2-9.2-3.5c-2.3-2.3-3.4-5.2-3.4-8.6
		c0-9.1,3-16.2,9-21.4c4.2-3.6,8.5-5.4,13-5.4c2,0,3.6,0.2,4.8,0.5l1.8,0.5c2.2-10.3,4.7-17.2,7.6-20.6c1-1.2,1.9-1.8,2.9-1.8
		c1.5,0,3,1.1,4.3,3.2c1.2,1.8,1.8,3.3,1.8,4.6c0,1.3-0.2,2.5-0.6,3.8c-0.4,1.2-0.8,2.4-1.4,3.4c-0.6,1-1.2,2.1-1.9,3
		c-0.7,1-1.4,2-2.1,3c-1.5,5.8-2.7,12.2-3.4,19.4c-0.2,2-0.3,3.7-0.3,4.9c0,3.7,0.6,5.5,1.8,5.5c1.4,0,4.7-2.8,10.1-8.3
		C76,65.9,76.7,65.4,77.2,65.4z M39.4,70.2c0,4.1,1.5,6.2,4.6,6.2c1.8,0,3.6-0.7,5.5-2.1c1.8-1.4,3.3-3.7,4.3-7
		c0.1-4.8,0.7-10.1,1.7-15.8c-4.3,0.9-8,2.9-11.2,6.2C41,61,39.4,65.1,39.4,70.2z"/>
	<path class="st0" d="M84.2,84.5c-5.3,0-8-5-8-15c0-5.4,0.7-10.4,2-14.8c2.1-6.8,4.4-10.2,7-10.2c1.5,0,2.8,1,3.7,3.1
		c0.7,1.6,1.1,3.2,1,4.7c0,2.1-0.6,5.9-1.9,11.3c-1.2,4.7-1.8,7.6-1.8,8.7s0.3,1.9,0.8,2.3c0.6,0.4,1.2,0.6,2,0.6
		c0.8,0,1.7-0.5,2.9-1.5c1.2-1,2.3-2.1,3.5-3.3c1.2-1.2,2.3-2.3,3.2-3.3c1-1,1.7-1.5,2-1.5c0.7,0,1.1,0.9,1.1,2.7
		c0,3.7-1.9,7.4-5.6,10.9C92.5,82.8,88.5,84.5,84.2,84.5z M87.5,38c-1.4-2.1-2.2-4.4-2.2-6.9c0-2.5,0.4-4.5,1.2-6.1
		c0.8-1.6,1.5-2.8,2.2-3.6c0.7-0.8,1.5-1.2,2.4-1.2c1.5,0,2.9,1.1,4.1,3.3c1.2,2.2,1.8,4.1,1.8,5.6c0,2.8-1,4.9-2.9,6.5
		C92.1,37.2,89.9,38,87.5,38z"/>
	<path class="st0" d="M121.2,66.7c1.4,5.7,3.9,8.6,7.3,8.6c1.7,0,3.1-0.5,4.5-1.5c1.3-1,2.5-2.1,3.6-3.3c1.1-1.2,2-2.3,2.8-3.3
		c0.8-1,1.5-1.5,2.2-1.5c0.7,0,1,0.9,1,2.7c0,3.8-1.8,7.4-5.3,11c-3.5,3.5-7.5,5.3-11.8,5.2c-4.3,0-8.2-3.9-11.6-11.5
		c-1-2.1-1.9-4.3-2.7-6.5l-0.6,11c0,1-0.1,2-0.2,3c-0.1,1-0.6,1.8-1.4,2.4c-2.1,1.7-4.2,2.5-6.3,2.5c-2.5,0-3.8-2.6-3.8-7.8
		c0-7.5,0.9-15.3,2.6-23.4c1.8-8.2,3.5-14.3,5.2-18.4c1.7-4.1,3-6.9,3.9-8.3c0.9-1.4,1.7-2.2,2.2-2.6c0.5-0.3,1.1-0.5,1.8-0.5
		c0.7,0,1.4,0.3,2.1,1c0.7,0.7,1.5,1.7,2.4,3c0.9,1.4,1.3,2.7,1.3,4c0,1.3-0.2,2.6-0.6,3.8c-0.5,1.3-1.1,2.5-1.8,3.7
		c-0.7,1.2-1.6,2.4-2.5,3.7c-0.9,1.3-1.8,2.6-2.7,4l-0.8,6.7c1.9-3.9,4.6-6.5,8.2-7.8c1.3-0.5,2.8-0.7,4.5-0.7c3.4,0,6,0.8,7.8,2.4
		c1.8,1.6,2.7,4,2.7,7.2c0,3.1-1.6,5.8-4.7,8C127.6,65.7,124.4,66.8,121.2,66.7z M124.3,57.4c0-1.9-1.1-2.9-3.3-2.9
		c-2.2,0-4.6,2.1-7.1,6.3c-0.7,1.2-1.4,2.5-1.9,3.8c5.5-0.3,9.3-1.8,11.4-4.5C124,59.2,124.3,58.3,124.3,57.4z"/>
	<path class="st1" d="M117.1,49.9c7.7-4.2,13.3-3.3,16.8,2.8C133.9,52.7,128.6,46.1,117.1,49.9z"/>
	<path class="st1" d="M119.6,80.3c0,0,5.1,6.1,12.2,1.6C131.9,81.9,123.6,84.3,119.6,80.3z"/>
	<path class="st1" d="M28.6,73.2c0,0,1.4,13.8,15,10.4C43.6,83.6,32.9,86.1,28.6,73.2z"/>
</g>
</svg>
